<svg width="800" height="800" viewBox="0 0 800 800" fill="none" xmlns="http://www.w3.org/2000/svg">
<g clip-path="url(#clip0_317_3514)">
<path d="M600 600V650H661.48C647.508 665.764 630.341 678.376 611.121 686.996C591.9 695.617 571.066 700.05 550 700C510.231 699.956 472.104 684.139 443.983 656.018C415.862 627.897 400.044 589.769 400 550H350C349.92 590.667 362.263 630.389 385.378 663.848C408.493 697.308 441.276 722.908 479.341 737.224C517.405 751.539 558.934 753.886 598.369 743.95C637.804 734.014 673.263 712.27 700 681.628V750H750V600H600Z" fill="white"/>
<path d="M550 350C521.585 350.146 493.524 356.316 467.668 368.101C441.812 379.887 418.749 397.021 400 418.372V350H350V500H500V450H438.52C452.493 434.236 469.659 421.624 488.88 413.004C508.1 404.383 528.935 399.95 550 400C589.769 400.044 627.897 415.861 656.018 443.982C684.139 472.103 699.956 510.231 700 550H750C749.939 496.975 728.848 446.14 691.354 408.646C653.86 371.152 603.025 350.061 550 350Z" fill="white"/>
<path d="M300 700H150V600H200V550H150V425H200V375H150V250H200V200H150V100H600V300H650V100C650 86.7392 644.732 74.0215 635.355 64.6447C625.979 55.2678 613.261 50 600 50H150C136.739 50 124.021 55.2678 114.645 64.6447C105.268 74.0215 100 86.7392 100 100V200H50V250H100V375H50V425H100V550H50V600H100V700C100 713.261 105.268 725.979 114.645 735.355C124.021 744.732 136.739 750 150 750H300V700Z" fill="white"/>
</g>
<defs>
<clipPath id="clip0_317_3514">
<rect width="800" height="800" fill="white"/>
</clipPath>
</defs>
</svg>
