<svg width="800" height="800" viewBox="0 0 800 800" fill="none" xmlns="http://www.w3.org/2000/svg">
<path fill-rule="evenodd" clip-rule="evenodd" d="M599.447 158.584C596.457 153.087 590.641 149.729 584.384 149.887C556.324 150.6 495.014 165.907 457.751 221.185C419.534 200.023 379.647 203.417 363.931 207.98C358.451 209.571 354.164 213.857 352.571 219.339C346.424 240.513 342.624 292.085 379.701 329.16C397.091 346.55 415.634 354.087 433.041 354.38C444.101 354.567 454.051 351.813 462.217 347.583C466.487 351.48 470.827 354.607 474.881 356.947C487.457 364.207 507.971 370.083 530.587 365.533C553.951 360.833 577.487 345.427 595.817 313.676C632.167 250.716 613.594 184.585 599.447 158.584ZM442.254 319.858C441.284 317.654 440.391 315.367 439.591 312.998C433.634 295.317 433.304 274.261 442.241 250.713C419.831 238.108 396.471 236.936 382.641 238.332C380.327 256.273 382.647 284.967 403.271 305.589C415.461 317.78 426.051 320.924 433.604 321.051C436.757 321.104 439.667 320.638 442.254 319.858ZM480.754 247.244C505.544 204.304 548.901 188.169 574.604 184.223C584.037 208.455 591.741 254.07 566.951 297.01C552.774 321.567 536.814 330.281 524.014 332.856C510.467 335.58 498.151 331.891 491.547 328.079C484.947 324.266 475.591 315.447 471.181 302.352C467.011 289.979 466.577 271.802 480.754 247.244Z" fill="white"/>
<path fill-rule="evenodd" clip-rule="evenodd" d="M494.539 423.256C501.805 428.083 506.322 435.003 509.135 442.633C514.895 458.266 512.505 473.136 504.062 485.333C504.005 485.416 503.945 485.5 503.889 485.583C517.559 481.336 530.629 476.226 542.952 470.966C550.085 467.923 557.265 464.686 564.225 461.546C577.342 455.63 589.685 450.06 599.502 446.796C607.095 444.27 616.059 442.03 624.629 443.113C629.259 443.7 634.162 445.3 638.585 448.63C643.032 451.98 646.045 456.37 647.955 461.056C652.142 471.33 649.155 481.67 645.769 488.93C642.162 496.67 636.452 504.526 629.815 512.073C616.449 527.273 597.062 543.76 575.305 558.9C553.465 574.1 528.615 588.383 503.992 598.923C479.632 609.353 454.249 616.663 431.709 616.663C411.802 616.666 361.852 611.763 313.014 604.646C288.413 601.063 263.658 596.853 242.649 592.303C222.278 587.89 203.516 582.776 192.243 576.85C186.763 573.97 183.332 568.29 183.332 562.096V448.396C183.332 443.723 185.294 439.266 188.74 436.106C192.185 432.95 196.798 431.386 201.454 431.793C307.669 441.1 375.652 430.826 419.239 423.36C421.825 422.916 424.379 422.473 426.885 422.036C444.652 418.943 460.289 416.22 472.242 416.73C479.605 417.043 487.492 418.58 494.539 423.256ZM216.665 466.433V551.01C224.529 553.72 235.722 556.696 249.705 559.726C269.706 564.056 293.65 568.14 317.82 571.663C366.522 578.756 414.409 583.333 431.705 583.33C447.785 583.33 468.379 577.913 490.875 568.28C513.105 558.763 535.985 545.656 556.265 531.543C576.625 517.37 593.742 502.616 604.785 490.06C609.299 484.926 612.432 480.57 614.382 477.116C613.149 477.44 611.702 477.866 610.025 478.423C601.712 481.19 592.159 485.513 580.445 490.813C573.205 494.09 565.139 497.74 556.032 501.626C510.929 520.873 448.235 541.96 380.479 521.18C372.219 518.65 367.265 510.226 369.065 501.776C370.862 493.326 378.822 487.653 387.395 488.703C410.579 491.55 438.432 488.053 457.905 479.613C467.679 475.376 473.725 470.596 476.655 466.363C478.992 462.983 479.819 459.48 477.859 454.16C477.312 452.68 476.832 451.89 476.552 451.503C476.305 451.163 476.165 451.07 476.102 451.026C475.965 450.936 474.802 450.203 470.822 450.033C462.732 449.686 451.142 451.686 431.985 454.99C429.722 455.38 427.349 455.79 424.865 456.216C382.165 463.53 316.464 473.456 216.665 466.433ZM616.662 471.69L616.659 471.74L616.662 471.69Z" fill="white"/>
</svg>
