<svg width="800" height="800" viewBox="0 0 800 800" fill="none" xmlns="http://www.w3.org/2000/svg">
<path d="M399.999 650C399.999 696.024 362.689 733.334 316.665 733.334C270.642 733.334 233.332 696.024 233.332 650C233.332 603.977 270.642 566.667 316.665 566.667C362.689 566.667 399.999 603.977 399.999 650Z" stroke="white" stroke-width="50"/>
<path d="M733.335 583.333C733.335 629.357 696.025 666.667 650.001 666.667C603.978 666.667 566.668 629.357 566.668 583.333C566.668 537.31 603.978 500 650.001 500C696.025 500 733.335 537.31 733.335 583.333Z" stroke="white" stroke-width="50"/>
<path d="M733.333 266.667L400 400" stroke="white" stroke-width="50" stroke-linecap="round"/>
<path d="M708.333 400.013C708.333 413.82 719.527 425.013 733.333 425.013C747.14 425.013 758.333 413.82 758.333 400.013H708.333ZM425 633.347V294.929H375V633.347H425ZM491.507 194.996L558.173 167.093L538.87 120.97L472.203 148.873L491.507 194.996ZM758.333 267.026C758.333 222.555 758.4 186.364 754.347 158.979C750.223 131.109 741.027 106.23 717.453 90.5405L689.75 132.165C695.907 136.262 701.577 143.924 704.887 166.296C708.267 189.154 708.333 220.906 708.333 267.026H758.333ZM558.173 167.093C600.717 149.286 630.033 137.088 652.423 131.382C674.34 125.797 683.597 128.068 689.75 132.165L717.453 90.5405C693.88 74.8512 667.377 75.9732 640.077 82.9302C613.25 89.7659 579.89 103.8 538.87 120.97L558.173 167.093ZM425 294.929C425 272.878 425.033 258.33 426.25 247.139C427.4 236.554 429.41 231.335 431.98 227.477L390.353 199.775C381.757 212.696 378.183 226.621 376.543 241.739C374.967 256.251 375 273.964 375 294.929H425ZM472.203 148.873C452.863 156.967 436.51 163.775 423.733 170.831C410.42 178.183 398.953 186.854 390.353 199.775L431.98 227.477C434.547 223.618 438.583 219.747 447.903 214.6C457.76 209.158 471.167 203.509 491.507 194.996L472.203 148.873ZM758.333 400.013V267.026H708.333V400.013H758.333Z" fill="white"/>
<path d="M233.332 366.667V216.667V66.667" stroke="white" stroke-width="50" stroke-linecap="round"/>
<path d="M150.001 433.334C196.025 433.334 233.335 396.024 233.335 350C233.335 303.977 196.025 266.667 150.001 266.667C103.978 266.667 66.668 303.977 66.668 350C66.668 396.024 103.978 433.334 150.001 433.334Z" stroke="white" stroke-width="50"/>
<path d="M333.332 166.667C291.911 166.667 233.332 135.703 233.332 66.667" stroke="white" stroke-width="50" stroke-linecap="round"/>
</svg>
