<svg width="800" height="800" viewBox="0 0 800 800" fill="none" xmlns="http://www.w3.org/2000/svg">
<g clip-path="url(#clip0_319_3538)">
<path d="M633.723 8.07318C639.322 2.01849 648.697 1.62786 654.752 7.22682C660.806 12.8258 661.197 22.2008 655.598 28.2555L533.723 160.157L533.528 160.417C518.619 178.451 508.397 195.117 503.84 210.352C499.804 223.828 500.39 236.068 506.379 246.745C509.569 252.474 508.528 259.505 504.296 264.128L446.418 326.758C440.754 320.573 436.262 315.56 433.267 312.305C431.9 310.482 430.338 308.724 428.71 307.031L428.58 307.162C427.799 306.315 426.952 305.534 426.106 304.753L475.585 251.172C469.791 235.677 469.856 219.206 475.194 201.693C480.924 182.683 493.098 162.435 510.611 141.341C511.002 140.821 511.327 140.3 511.783 139.844L633.593 7.94297L633.723 8.07318ZM371.939 361.393C366.47 355.274 366.991 345.834 373.111 340.365C379.231 334.896 388.671 335.417 394.14 341.537C455.403 410.156 644.791 613.216 697.265 689.128C766.47 787.11 659.309 817.969 623.762 782.292C534.96 696.42 346.418 477.474 263.541 384.636C233.723 397.266 204.752 399.219 175.65 390.886C144.335 381.966 113.671 361.068 82.5512 328.972L82.1605 328.581C58.4626 303.581 39.9079 278.906 26.4965 254.492C12.7595 229.362 4.36107 204.492 1.36628 179.818C-1.82382 153.255 0.650137 128.516 7.8116 106.576C16.21 80.7945 31.1189 58.9846 50.6501 42.7737C70.3116 26.4977 94.4652 15.9508 121.418 12.6956C143.814 10.0263 168.228 12.3049 193.489 20.5732C228.45 31.9664 269.205 60.2867 302.994 96.6148C327.929 123.373 349.283 154.688 361.978 186.914C375.194 220.508 379.231 255.274 368.619 287.826C362.369 307.097 351.041 325.196 333.463 341.537C327.408 347.136 318.033 346.745 312.434 340.755C306.835 334.701 307.226 325.326 313.215 319.727C326.822 307.031 335.546 293.164 340.299 278.516C348.502 253.321 345.051 225.391 334.244 197.917C322.916 169.141 303.71 141.016 281.184 116.862C250.715 84.18 214.582 58.8544 184.114 48.8935C163.215 42.1227 143.228 40.1695 124.934 42.3831C103.71 44.9872 84.6996 53.1253 69.5303 65.8206C54.296 78.5159 42.6423 95.6383 35.9366 116.016C30.1423 133.789 28.1241 154.232 30.7934 176.302C33.3324 197.136 40.559 218.425 52.4079 240.17C64.8428 262.5 81.9001 285.091 103.84 308.203L103.97 308.399C131.444 336.719 157.812 354.948 183.918 362.37C208.593 369.401 233.723 366.667 259.96 353.581C265.95 350.13 273.697 351.302 278.45 356.641C359.309 447.201 555.989 675.13 643.098 759.571C680.924 775 701.887 755.99 683.788 722.461C655.598 670.117 413.411 408.008 371.939 361.393ZM293.424 492.318L103.58 697.722C103.189 698.112 102.864 698.503 102.408 698.893C74.6736 728.841 123.762 772.461 154.231 743.294L338.606 543.75L358.398 566.211L175.455 764.193C175.064 764.649 174.674 765.039 174.153 765.495C163.215 774.675 152.213 780.664 141.08 783.138C129.621 785.742 118.358 784.571 107.551 779.492C105.728 778.776 104.036 777.865 102.538 776.498L76.3012 752.214C75.9106 751.823 75.5199 751.498 75.1293 751.042C64.973 739.323 60.1553 726.823 61.4574 713.607C62.6944 701.107 69.335 688.933 81.9001 677.214L273.567 469.792L293.424 492.318ZM492.382 377.344L503.645 365.17C509.244 359.115 518.684 358.724 524.674 364.323C530.663 369.922 531.119 379.297 525.52 385.352L512.499 399.414L492.382 377.344ZM680.012 51.6279C685.611 45.5732 694.986 45.1826 701.041 50.7815C707.095 56.3805 707.486 65.7555 701.887 71.8101L595.051 187.5C589.452 193.555 580.077 193.946 574.022 188.347C567.968 182.748 567.577 173.373 573.176 167.318L680.012 51.6279ZM726.236 94.4013C731.835 88.3466 741.21 87.956 747.265 93.5549C753.319 99.1539 753.71 108.529 748.111 114.584L641.34 230.209C635.741 236.263 626.366 236.654 620.312 231.055C614.257 225.456 613.866 216.081 619.465 210.026L726.236 94.4013ZM774.153 138.867C779.752 132.813 789.127 132.422 795.181 138.021C801.236 143.62 801.627 153.06 796.028 159.05L674.153 291.016C673.697 291.472 673.241 291.862 672.785 292.318C645.051 319.011 618.554 334.44 593.228 338.802C565.754 343.555 540.559 335.742 517.447 315.56C511.262 310.157 510.676 300.716 516.015 294.597C521.418 288.412 530.858 287.826 536.978 293.164C552.929 307.097 569.986 312.565 588.02 309.375C607.421 306.055 628.775 293.229 652.082 270.768L652.213 270.638L774.022 138.802L774.153 138.867Z" fill="white"/>
</g>
<defs>
<clipPath id="clip0_319_3538">
<rect width="800" height="800" fill="white"/>
</clipPath>
</defs>
</svg>
