<svg width="800" height="800" viewBox="0 0 800 800" fill="none" xmlns="http://www.w3.org/2000/svg">
<path d="M384 483.5V631.996C384 645.252 373.255 655.996 360 655.996H56C42.7453 655.996 32 645.252 32 631.996V168.004C32 154.748 42.7453 144.004 56 144.004H360C373.255 144.004 384 154.748 384 168.004V356.804C384 365.641 391.163 372.804 400 372.804C408.837 372.804 416 365.641 416 356.804V168.004C416 137.073 390.927 112.004 360 112.004H56C25.0734 112.004 0 137.073 0 168.004V631.996C0 662.926 25.0734 687.996 56 687.996H360C390.927 687.996 416 662.926 416 631.996V483.5C416 474.663 408.837 467.5 400 467.5C391.163 467.5 384 474.663 384 483.5Z" fill="white"/>
<path d="M312 255.998C316.42 255.998 320 252.418 320 247.998V215.998C320 211.579 316.42 207.998 312 207.998H104C102.949 207.998 101.909 208.205 100.938 208.607C99.9676 209.009 99.0856 209.598 98.3427 210.341C97.5998 211.084 97.0105 211.966 96.6085 212.936C96.2066 213.907 95.9998 214.947 96 215.998V247.998C96 252.418 99.5805 255.998 104 255.998H312ZM312 287.998H104C81.9078 287.998 64 270.09 64 247.998V215.998C64 193.906 81.9078 175.998 104 175.998H312C334.092 175.998 352 193.906 352 215.998V247.998C352 270.09 334.092 287.998 312 287.998ZM142.695 365.024C146.966 387.568 127.566 406.968 105.023 402.696C92.5023 400.32 82.2547 390.071 79.8867 377.552C75.607 355.008 95.007 335.608 117.551 339.88C130.079 342.256 140.319 352.504 142.695 365.024ZM238.695 365.024C242.966 387.568 223.566 406.968 201.023 402.696C188.502 400.32 178.255 390.071 175.887 377.552C171.607 355.008 191.007 335.608 213.551 339.88C226.079 342.256 236.319 352.504 238.695 365.024ZM142.695 461.824C146.966 484.368 127.566 503.768 105.023 499.496C92.5023 497.12 82.2547 486.871 79.8867 474.352C75.607 451.808 95.007 432.408 117.551 436.68C130.079 439.056 140.319 449.304 142.695 461.824ZM238.695 461.824C242.966 484.368 223.566 503.768 201.023 499.496C188.502 497.12 178.255 486.871 175.887 474.352C171.607 451.808 191.007 432.408 213.551 436.68C226.079 439.056 236.319 449.304 238.695 461.824ZM334.695 461.824C338.966 484.368 319.566 503.768 297.023 499.496C284.502 497.12 274.255 486.871 271.887 474.352C267.607 451.808 287.007 432.408 309.551 436.68C322.079 439.056 332.319 449.304 334.695 461.824ZM142.695 557.824C146.966 580.368 127.566 599.768 105.023 595.496C92.5023 593.12 82.2547 582.871 79.8867 570.352C75.607 547.808 95.007 528.408 117.551 532.68C130.079 535.056 140.319 545.304 142.695 557.824ZM238.695 557.824C242.966 580.368 223.566 599.768 201.023 595.496C188.502 593.12 178.255 582.871 175.887 570.352C171.607 547.808 191.007 528.408 213.551 532.68C226.079 535.056 236.319 545.304 238.695 557.824ZM334.695 557.824C338.966 580.368 319.566 599.768 297.023 595.496C284.502 593.12 274.255 582.871 271.887 570.352C267.607 547.808 287.007 528.408 309.551 532.68C322.079 535.056 332.319 545.304 334.695 557.824ZM474.905 528.891L318.913 372.899C311.305 365.291 311.305 352.95 318.913 345.343L322.669 341.595C330.291 333.968 342.627 333.968 350.234 341.579L506.23 497.567C512.478 503.815 522.609 503.814 528.857 497.566C535.105 491.318 535.105 481.187 528.856 474.939L372.864 318.954C352.763 298.841 320.155 298.841 300.05 318.958L296.298 322.703C276.181 342.819 276.181 375.421 296.286 395.526L452.278 551.518C458.527 557.767 468.657 557.767 474.906 551.518C481.154 545.27 481.154 535.139 474.906 528.891H474.905Z" fill="white"/>
<path d="M529.955 476.042L448.284 394.37C440.669 386.755 440.669 374.424 448.28 366.817L452.055 363.033C459.651 355.438 471.992 355.438 479.6 363.045L561.28 444.718C567.529 450.966 577.66 450.965 583.908 444.717C590.155 438.468 590.155 428.337 583.907 422.09L502.227 340.418C482.123 320.314 449.521 320.314 429.416 340.418L425.644 344.198C405.544 364.287 405.544 396.885 425.656 416.997L507.328 498.669C513.576 504.918 523.707 504.918 529.955 498.669C536.204 492.421 536.204 482.29 529.955 476.042Z" fill="white"/>
<path d="M598.955 437.149L517.284 355.477C509.669 347.863 509.669 335.531 517.28 327.924L521.055 324.141C528.651 316.545 540.992 316.545 548.6 324.152L630.28 405.825C636.529 412.074 646.66 412.073 652.908 405.824C659.155 399.576 659.155 389.445 652.907 383.197L571.227 301.525C551.123 281.421 518.521 281.421 498.416 301.526L494.644 305.306C474.544 325.395 474.544 357.992 494.656 378.105L576.328 459.777C582.577 466.025 592.707 466.025 598.955 459.777C605.204 453.528 605.204 443.398 598.955 437.149Z" fill="white"/>
<path d="M667.793 398.591L586.121 316.919C578.506 309.304 578.506 296.973 586.118 289.366L589.893 285.582C597.488 277.987 609.83 277.987 617.438 285.594L699.118 367.267C705.366 373.515 715.498 373.514 721.745 367.266C727.993 361.017 727.993 350.886 721.745 344.638L640.065 262.967C619.961 242.863 587.359 242.863 567.254 262.967L563.482 266.747C543.381 286.836 543.381 319.434 563.494 339.546L645.166 421.218C651.414 427.467 661.545 427.467 667.793 421.218C674.041 414.97 674.041 404.839 667.793 398.591ZM535.666 589.652L463.01 516.996L440.383 539.624L513.039 612.28L535.666 589.652Z" fill="white"/>
<path d="M639.465 307.62L732.873 401.027L755.5 378.4L662.092 284.992L639.465 307.62Z" fill="white"/>
<path d="M727.471 395.493C753.063 420.945 767.698 455.409 767.698 492.228C767.698 567.575 706.621 628.652 631.273 628.652C594.584 628.652 560.239 614.126 534.811 588.698L512.184 611.325C543.554 642.696 586.011 660.652 631.273 660.652C724.294 660.652 799.698 585.249 799.698 492.228C799.698 446.804 781.608 404.202 750.036 372.803L727.471 395.492V395.493Z" fill="white"/>
</svg>
