<svg width="800" height="800" viewBox="0 0 800 800" fill="none" xmlns="http://www.w3.org/2000/svg">
<path fill-rule="evenodd" clip-rule="evenodd" d="M275.002 324.974H224.727C210.927 324.974 199.727 336.174 199.727 349.974C199.727 363.774 210.927 374.974 224.727 374.974H275.002V425.274C275.002 439.049 286.202 450.274 300.002 450.274C313.802 450.274 325.002 439.049 325.002 425.274V374.974H375.277C389.077 374.974 400.277 363.774 400.277 349.974C400.277 336.174 389.077 324.974 375.277 324.974H325.002V274.699C325.002 260.899 313.802 249.699 300.002 249.699C286.202 249.699 275.002 260.899 275.002 274.699V324.974Z" fill="white"/>
<path fill-rule="evenodd" clip-rule="evenodd" d="M400.125 150.001H125C83.575 150.001 50 183.576 50 225.001C50 306.776 50 468.226 50 550.001C50 591.426 83.575 625.001 125 625.001H153.15C164.25 668.126 203.425 700.026 250 700.026C296.575 700.026 335.75 668.126 346.85 625.001H453.15C464.25 668.126 503.425 700.026 550 700.026C596.575 700.026 635.75 668.126 646.85 625.001H675C716.425 625.001 750 591.426 750 550.001C750 501.051 750 423.576 750 351.726C750 298.226 728.75 246.901 690.925 209.076C653.5 171.651 602.875 150.451 550 150.001V125.201C550 105.351 542.1 86.3008 528.05 72.2508C514.025 58.2008 494.975 50.3008 475.1 50.3008C475.075 50.3008 475.05 50.3008 475.025 50.3008C455.175 50.3008 436.125 58.2008 422.075 72.2508C408.025 86.3008 400.125 105.351 400.125 125.201V150.001ZM250 550.026C277.6 550.026 300 572.426 300 600.026C300 627.626 277.6 650.026 250 650.026C222.4 650.026 200 627.626 200 600.026C200 572.426 222.4 550.026 250 550.026ZM550 550.026C577.6 550.026 600 572.426 600 600.026C600 627.626 577.6 650.026 550 650.026C522.4 650.026 500 627.626 500 600.026C500 572.426 522.4 550.026 550 550.026ZM660.575 249.701C658.95 247.901 657.275 246.151 655.575 244.426C627.1 215.976 588.525 200.001 548.275 200.001H125C111.2 200.001 100 211.201 100 225.001C100 306.776 100 468.226 100 550.001C100 563.801 111.2 575.001 125 575.001H153.15C164.275 531.901 203.45 500.026 250 500.026C296.55 500.026 335.725 531.901 346.85 575.001H453.15C464.275 531.901 503.45 500.026 550 500.026C596.55 500.026 635.725 531.901 646.85 575.001H675C688.8 575.001 700 563.801 700 550.001V449.776H599.875C579.975 449.776 560.9 441.876 546.825 427.801C532.775 413.751 524.875 394.676 524.875 374.776C524.875 358.676 524.875 340.801 524.875 324.701C524.875 304.801 532.775 285.726 546.825 271.651C560.9 257.601 579.975 249.701 599.875 249.701H660.575ZM690.8 299.701H599.875C593.225 299.701 586.875 302.326 582.175 307.026C577.5 311.701 574.875 318.051 574.875 324.701V374.776C574.875 381.401 577.5 387.776 582.175 392.451C586.875 397.151 593.225 399.776 599.875 399.776H700V351.726C700 333.801 696.825 316.201 690.8 299.701ZM500 150.001V125.201C500 118.601 497.375 112.276 492.7 107.601C488.025 102.926 481.7 100.301 475.1 100.301C475.075 100.301 475.05 100.301 475.025 100.301C468.425 100.301 462.1 102.926 457.425 107.601C452.75 112.276 450.125 118.601 450.125 125.201V150.001H500Z" fill="white"/>
</svg>
