<svg width="800" height="361" viewBox="0 0 800 361" fill="none" xmlns="http://www.w3.org/2000/svg">
<path d="M779.126 0H332.086C317.947 0 304.135 11.4579 301.227 25.5955L237.683 334.663C234.782 348.799 243.892 360.258 258.019 360.258H705.069C719.208 360.258 733.019 348.8 735.924 334.663L799.458 25.5955C802.369 11.4579 793.265 0 779.126 0ZM725.646 103.434L527.254 199.113C518.697 203.246 508.949 203.246 502.087 199.113L343.036 103.434C331.503 96.4995 329.928 80.3136 339.532 67.3529C345.961 58.6689 356.086 53.2685 365.947 53.2685C370.303 53.2685 374.423 54.3596 377.861 56.4267L525.711 145.375L710.146 56.4267C714.422 54.3613 718.992 53.2702 723.358 53.2702C733.215 53.2702 741.12 58.6672 743.98 67.3426C748.26 80.3085 740.034 96.5012 725.646 103.434Z" fill="white"/>
<path d="M70.1235 67.4918H262.73C272.928 67.4918 281.189 59.2282 281.189 49.038C281.189 38.8444 272.93 30.5842 262.73 30.5842H70.1235C59.935 30.5842 51.668 38.8444 51.668 49.038C51.668 59.2282 59.9333 67.4918 70.1235 67.4918Z" fill="white"/>
<path d="M211.069 198.509H18.459C8.26364 198.509 0 206.769 0 216.96C0 227.153 8.26193 235.415 18.459 235.415H211.069C221.255 235.415 229.521 227.157 229.521 216.96C229.521 206.769 221.255 198.509 211.069 198.509Z" fill="white"/>
<path d="M255.352 131.923C255.352 121.731 247.095 113.473 236.907 113.473H121.789C111.601 113.473 103.344 121.731 103.344 131.923C103.344 142.112 111.601 150.375 121.789 150.375H236.907C247.095 150.375 255.352 142.113 255.352 131.923Z" fill="white"/>
<path d="M185.229 281.391H123.725C113.529 281.391 105.266 289.649 105.266 299.846C105.266 310.033 113.528 318.3 123.725 318.3H185.229C195.428 318.3 203.688 310.037 203.688 299.846C203.686 289.653 195.428 281.391 185.229 281.391Z" fill="white"/>
</svg>
