<svg width="800" height="496" viewBox="0 0 800 496" fill="none" xmlns="http://www.w3.org/2000/svg">
<path d="M800 191.773C800 208.753 789.816 224.049 774.141 230.614L757.919 237.389V330.598C757.919 342.212 748.514 351.639 736.879 351.639C725.222 351.639 715.838 342.212 715.838 330.598V254.979L667.193 275.346V382.337C667.193 400.41 655.536 416.548 638.388 422.229L424.028 493.472C419.715 494.903 415.233 495.66 410.731 495.66C406.691 495.66 402.546 495.071 398.59 493.872L162.769 422.608C144.99 417.201 132.828 400.873 132.828 382.316V275.325L25.8587 230.593C10.2257 224.028 0 208.732 0 191.773C0 174.815 10.1836 159.497 25.8587 152.954L383.778 3.25075C394.109 -1.08358 405.849 -1.08358 416.243 3.25075L774.141 152.954C789.795 159.476 800 174.794 800 191.773Z" fill="white"/>
</svg>
