<svg width="800" height="650" viewBox="0 0 800 650" fill="none" xmlns="http://www.w3.org/2000/svg">
<path d="M375 150H425V200H375V150ZM162.5 150C155.6 150 150 155.6 150 162.5C150 169.4 155.6 175 162.5 175C169.4 175 175 169.4 175 162.5C175 155.6 169.4 150 162.5 150ZM537.5 625H500V575H300V625H262.5C255.6 625 250 630.6 250 637.5C250 644.4 255.6 650 262.5 650H537.5C544.4 650 550 644.4 550 637.5C550 630.6 544.4 625 537.5 625ZM800 75V475C800 516.425 766.425 550 725 550H75C33.575 550 0 516.425 0 475V75C0 33.575 33.575 0 75 0H725C766.425 0 800 33.575 800 75ZM674.15 154.35C671.15 140.05 659.475 128.6 645.15 125.75C625.6 121.9 608.275 133.25 602.325 150H450V125H350V150H197.7C191.75 133.25 174.4 121.9 154.875 125.75C140.55 128.575 128.875 140.05 125.875 154.35C120.75 178.625 139.125 200 162.5 200C178.8 200 192.55 189.525 197.7 175H350V180.6C240.3 203.025 156.375 297.05 150.35 411.75C149.975 418.925 155.675 425 162.875 425C169.45 425 174.975 419.9 175.3 413.325C180.525 311.7 253.65 228.075 350 206.1V225H450V206.075C546.35 228.075 619.475 311.7 624.7 413.3C625.05 419.9 630.55 425 637.125 425C644.325 425 650.025 418.925 649.65 411.75C643.625 297.05 559.7 203.025 450 180.6V175H602.3C607.475 189.525 621.2 200 637.5 200C660.875 200 679.25 178.625 674.15 154.35ZM637.5 150C630.6 150 625 155.6 625 162.5C625 169.4 630.6 175 637.5 175C644.4 175 650 169.4 650 162.5C650 155.6 644.4 150 637.5 150Z" fill="white"/>
</svg>
