<svg width="640" height="800" viewBox="0 0 640 800" fill="none" xmlns="http://www.w3.org/2000/svg">
<path fill-rule="evenodd" clip-rule="evenodd" d="M520 640C512.64 640 506.667 645.973 506.667 653.333V680C506.667 687.36 512.64 693.333 520 693.333C527.36 693.333 533.333 687.36 533.333 680V653.333C533.333 645.973 527.36 640 520 640ZM533.333 493.333C533.333 485.973 527.36 480 520 480C512.64 480 506.667 485.973 506.667 493.333V600C506.667 607.36 512.64 613.333 520 613.333C527.36 613.333 533.333 607.36 533.333 600V493.333ZM613.333 346.667H26.6667C11.96 346.667 0 358.627 0 373.333V426.667C0 441.373 11.96 453.333 26.6667 453.333V733.333C26.6667 770.093 56.5733 800 93.3333 800H546.667C583.427 800 613.333 770.093 613.333 733.333V493.333C613.333 485.973 607.36 480 600 480C592.64 480 586.667 485.973 586.667 493.333V733.333C586.667 755.387 568.72 773.333 546.667 773.333H93.3333C71.28 773.333 53.3333 755.387 53.3333 733.333V440C53.3333 432.64 47.36 426.667 40 426.667H26.6667V373.333H613.333V426.667H93.3333C85.9733 426.667 80 432.64 80 440C80 447.36 85.9733 453.333 93.3333 453.333H613.333C628.04 453.333 640 441.373 640 426.667V373.333C640 358.627 628.04 346.667 613.333 346.667ZM293.333 219.547V306.667C293.333 314.027 299.307 320 306.667 320C314.027 320 320 314.027 320 306.667V213.333C320 209.147 318 205.173 314.653 202.653C301.107 192.467 293.333 176.92 293.333 160C293.333 126.453 325.613 69.5467 346.667 37.1067C367.72 69.5467 400 126.453 400 160C400 185.347 382 207.333 357.213 212.293C349.987 213.733 345.293 220.76 346.747 227.973C348.187 235.2 355.213 239.84 362.427 238.44C399.653 231.013 426.667 198.027 426.667 160C426.667 103.053 360.333 9.53333 357.52 5.58667C352.507 -1.42667 340.827 -1.42667 335.813 5.58667C333 9.53333 266.667 103.053 266.667 160C266.667 182.853 276.12 204.053 293.333 219.547ZM40 320H66.6667C74.0267 320 80 314.027 80 306.667C80 299.307 74.0267 293.333 66.6667 293.333H53.3333V266.667H120C127.36 266.667 133.333 260.693 133.333 253.333C133.333 245.973 127.36 240 120 240H53.3333V213.333H66.6667C74.0267 213.333 80 207.36 80 200C80 192.64 74.0267 186.667 66.6667 186.667H53.3333V160H66.6667C74.0267 160 80 154.027 80 146.667C80 139.307 74.0267 133.333 66.6667 133.333H53.3333V106.667H120C127.36 106.667 133.333 100.693 133.333 93.3333C133.333 85.9733 127.36 80 120 80H53.3333V26.6667H213.333V306.667C213.333 314.027 219.307 320 226.667 320C234.027 320 240 314.027 240 306.667V13.3333C240 5.97333 234.027 0 226.667 0H40C32.64 0 26.6667 5.97333 26.6667 13.3333V306.667C26.6667 314.027 32.64 320 40 320ZM520 173.333V306.667C520 314.027 525.973 320 533.333 320C540.693 320 546.667 314.027 546.667 306.667V173.333C546.667 165.973 540.693 160 533.333 160C525.973 160 520 165.973 520 173.333ZM600 160C592.64 160 586.667 165.973 586.667 173.333V306.667C586.667 314.027 592.64 320 600 320C607.36 320 613.333 314.027 613.333 306.667V173.333C613.333 165.973 607.36 160 600 160ZM466.667 320C474.027 320 480 314.027 480 306.667V123.827L533.333 38.4933L575.947 106.667H520C512.64 106.667 506.667 112.64 506.667 120C506.667 127.36 512.64 133.333 520 133.333H600C604.853 133.333 609.307 130.707 611.667 126.467C614.013 122.227 613.88 117.04 611.307 112.933L544.64 6.26667C539.76 -1.53333 526.907 -1.53333 522.027 6.26667L455.36 112.933C454.04 115.053 453.333 117.493 453.333 120V306.667C453.333 314.027 459.307 320 466.667 320ZM400 266.667V306.667C400 314.027 394.027 320 386.667 320C379.307 320 373.333 314.027 373.333 306.667V266.667C373.333 259.307 379.307 253.333 386.667 253.333C394.027 253.333 400 259.307 400 266.667Z" fill="white"/>
</svg>
