<svg width="800" height="800" viewBox="0 0 800 800" fill="none" xmlns="http://www.w3.org/2000/svg">
<path d="M266.667 169.044L66.6667 115.467C29.8444 105.6 0 127.444 0 164.289V608.733C0 645.533 29.8444 683.378 66.6667 693.267L266.667 746.844V169.044ZM533.333 675.4L733.333 728.978C770.133 738.822 800 716.978 800 680.178V235.733C800 198.911 770.133 161.067 733.333 151.2L533.333 97.6221V675.4Z" fill="#CCD6DD"/>
<path d="M533.331 675.377L266.664 746.822V169.044L533.331 97.5996V675.377Z" fill="#E1E8ED"/>
<path d="M266.668 213.489L88.8898 165.845C64.3564 159.267 44.4453 173.845 44.4453 198.378V598.378C44.4453 622.911 64.3564 648.156 88.8898 654.711L266.668 702.378V213.489ZM711.112 189.667L533.334 142.022V630.911L711.112 678.556C735.645 685.134 755.556 670.578 755.556 646V246C755.556 221.489 735.645 196.245 711.112 189.667Z" fill="#A7A7A7"/>
<path d="M533.331 630.934L266.664 702.378V213.489L533.331 142.045V630.934Z" fill="#BABABA"/>
<path d="M266.663 477.912C260.707 478.045 253.441 480.223 247.885 481.134C238.196 482.756 240.574 492.623 237.596 490.978C230.73 487.261 224.612 482.303 219.552 476.356C212.063 467.6 225.107 465.756 228.841 462.534C232.574 459.312 221.819 458.712 218.063 455.156C214.307 451.623 207.596 457.467 201.641 449.023C195.641 440.667 199.396 431.467 198.685 422.8C197.93 414.134 208.374 415.223 215.107 415.378C221.841 415.445 227.063 418.578 227.063 428.756C227.063 438.889 235.285 444.489 233.041 432C230.796 419.534 235.285 417.4 238.263 412.223C241.241 407.112 246.485 400 253.196 389.112C258.107 381.156 261.841 382.823 266.663 385.467V311.134C265.441 310.156 264.219 309.134 262.996 308.623C256.263 305.689 265.13 325.356 259.907 333.267C254.641 341.178 246.619 337.556 238.352 335.356C230.152 333.156 222.507 323.245 228.507 312.978C234.463 302.712 245.885 307.023 251.863 298.467C257.841 289.912 230.596 283.534 220.885 277.556C211.152 271.534 199.485 268.467 189.774 274.312C180.063 280.178 159.263 277.267 151.041 278.445C142.819 279.645 141.352 270.245 139.863 263.045C138.374 255.889 125.352 255.734 111.93 255.534C98.463 255.312 73.2408 261.778 77.5519 294.623C79.063 306.045 90.9964 297.378 93.263 295.423C95.5075 293.467 106.707 299.867 108.174 309.578C109.685 319.334 108.952 329.289 105.974 336.956C102.93 344.623 113.441 359.312 119.396 372.778C125.374 386.223 132.13 388.023 135.107 388.845C138.107 389.645 155.285 401.889 154.552 410.978C153.819 420.112 170.241 433 176.974 440.756C183.707 448.534 187.952 455.467 196.685 459.556C205.419 463.623 215.619 482.556 220.107 485.445C223.552 487.667 229.396 495.467 232.907 498.334C228.285 503.712 219.307 514.956 219.307 521.2C219.307 529.712 229.085 545.712 232.819 550.089C236.53 554.445 247.263 559.912 249.507 568.978C251.752 578.023 247.952 605.556 241.241 611.356C234.485 617.178 232.041 634.534 232.041 634.534C232.041 634.534 234.419 641.045 242.374 637.289C249.241 634.089 259.619 624.712 266.685 619.489V477.912H266.663Z" fill="white"/>
<path d="M272.62 386.955C270.397 387.311 268.464 387.222 266.664 387.2V312.867C272.309 314.311 278.042 319.911 282.375 329.222C287.575 340.533 295.797 330.689 298.797 337.533C301.775 344.378 318.242 354.378 310.02 354.022C301.775 353.689 293.553 354.2 291.331 364.111C289.064 374.067 295.064 381.755 289.064 382.511C283.064 383.244 280.842 385.667 272.62 386.955ZM330.175 510.467C320.486 508.822 322.197 509.955 316.22 497.155C310.264 484.333 306.642 480.644 293.197 482.578C279.753 484.511 280.242 485.6 276.509 478.955C274.909 476.111 271.153 477.133 266.664 479.644V621.2C268.664 618.667 270.442 616.511 271.731 615.267C283.578 603.991 294.475 591.757 304.309 578.689C314.753 564.889 310.975 558.155 316.197 545.778C321.442 533.378 328.22 532.067 337.175 520.333C346.175 508.556 339.886 512.155 330.175 510.467ZM533.331 349.578V209.267C532.442 209.355 531.82 209.533 530.886 209.6C526.242 209.844 520.175 212.6 513.575 216.711C513.042 216.6 512.553 216.355 512.02 216.244C492.109 212.355 482.864 243.022 466.709 241.844C450.509 240.667 428.931 234.2 414.886 253.267C400.864 272.311 397.62 287.267 414.886 282.022C432.153 276.778 444.042 250.355 452.664 257.822C461.286 265.289 459.109 273.844 438.62 282.378C418.131 290.933 395.997 300.533 384.131 303.711C372.264 306.889 369.575 315.578 377.642 321.978C385.731 328.378 372.775 332.444 359.286 344.644C345.797 356.8 362.531 356.022 373.864 360.311C385.197 364.6 393.82 353.133 398.686 339.6C403.509 326.089 424.42 305.8 433.131 305.289C441.842 304.778 441.842 309.667 440.197 318.667C439.909 320.244 440.22 320.955 440.442 321.733C436.664 333.733 433.553 344.622 432.331 350.755C431.736 355.136 431.536 359.561 431.731 363.978C429.82 364.067 427.664 364.444 426.22 364C416.486 361.133 394.353 359.111 388.42 364.955C382.486 370.844 379.264 376.111 372.242 381.022C365.197 385.889 336.62 408.222 336.086 427.333C335.531 446.422 334.997 468 346.331 465.578C357.664 463.155 385.197 447.222 393.82 436.955C402.42 426.667 414.286 425.355 418.086 433.489C421.864 441.689 419.153 447.911 415.42 463.578C411.62 479.311 417.864 484.978 423.886 496.2C429.953 507.4 434.797 513.422 434.797 522.622C434.797 531.778 443.442 538.689 456.353 519.889C460.863 513.116 464.845 506.006 468.264 498.622C477.353 488.2 485.331 478.111 485.108 474.267C484.824 469.649 484.646 465.026 484.575 460.4L486.597 455.511C489.42 449 491.953 438.933 494.642 429.844C494.773 429.653 494.922 429.475 495.086 429.311C500.353 421.822 499.197 421.467 507.975 412.511C513.842 406.511 513.62 401.133 512.731 397.444C515.064 393.555 515.709 391.222 511.997 392.222L511.642 392.311C511.597 392.311 511.531 392.733 511.508 392.622C510.997 389.311 506.931 392.689 500.375 395.911C494.064 396.089 487.797 394.444 485.531 387.733C482.575 378.933 472.153 365.6 471.331 358.044C471.397 357.133 471.442 356.333 471.553 355.289C471.821 354.478 472.363 353.787 473.086 353.333C473.854 352.907 474.701 352.642 475.575 352.555C476.486 355.022 477.242 358.755 477.486 362.867C478.064 373.467 486.242 367.222 486.242 373.933C486.242 380.667 498.02 384.867 500.931 386.111C501.753 386.467 503.02 385.511 504.464 383.933C505.153 384.178 505.797 384.667 506.531 384.755C513.02 385.444 527.02 362.889 531.353 358.889C533.62 356.778 533.664 352.911 532.086 350.133L533.331 349.578Z" fill="white"/>
<path d="M614.092 449.355C612.914 459.133 618.18 453.822 627.558 465.022C636.958 476.311 625.247 473.777 621.136 472.044C617.025 470.266 612.914 469.133 608.269 460.533C603.536 451.844 608.269 445.089 608.269 437.711C608.269 437.711 615.292 439.577 614.092 449.355ZM622.136 429.333C630.78 433.022 624.669 418.622 627.558 410.644C630.491 402.733 634.58 402.466 639.891 402.577C645.136 402.622 649.269 398.333 652.803 393.933C656.291 389.511 662.758 383.844 662.18 377.644C661.603 371.444 659.869 366.933 657.469 358.911C655.136 350.911 664.491 350.733 668.625 343.111C672.714 335.489 668.625 343.111 677.98 342.933C687.358 342.755 683.269 341.644 685.003 338.089C686.78 334.555 687.958 330.822 686.203 322.977C684.469 315.133 677.98 320.755 671.536 319.044C665.114 317.333 673.891 309.6 674.469 301.711C675.047 293.8 683.291 298.044 689.158 298.933C695.003 299.8 696.758 309.689 698.514 312.2C700.314 314.689 718.403 304.089 723.136 297.955C727.825 291.844 719.003 291.489 721.38 289C723.736 286.533 707.336 281.511 700.825 278.577C694.403 275.622 677.98 270.422 671.536 264.155C665.114 257.866 640.514 254.689 634.025 256.666C627.558 258.577 623.447 253.489 620.558 247.644C617.647 241.822 605.314 241.044 601.803 237.266C598.291 233.489 594.78 240.089 590.047 240.822C585.38 241.6 583.625 241.777 577.736 236.177C571.891 230.577 579.514 227.933 571.336 222.377C563.447 217.089 553.269 218.333 533.336 209.244V349.555C536.825 349.866 540.203 350.355 541.425 350.689C544.336 351.466 551.38 363.422 551.38 368.111C551.38 372.8 554.892 386.511 557.847 394.666C560.758 402.8 567.18 405.911 573.091 412.844C578.958 419.777 581.847 415.889 581.847 415.889C581.847 415.889 579.514 403.8 579.514 394.444C579.514 385.022 586.536 378.866 586.536 378.866C586.536 378.866 597.647 391.266 598.269 394.089C598.847 396.933 607.625 408.666 608.247 413.555C608.825 418.422 613.514 425.689 622.136 429.333ZM668.625 383.377C672.714 385.155 690.314 387.177 680.936 375.955C671.536 364.711 678.58 369.311 679.758 359.555C680.936 349.777 673.892 347.911 673.892 347.911C673.892 355.289 669.203 362.089 673.892 370.711C678.558 379.377 664.491 381.6 668.625 383.377ZM713.158 502.733C710.247 497.911 703.803 494.177 696.758 492.489C689.758 490.8 690.314 481.822 683.291 480.644C676.269 479.422 671.203 472 668.047 469.266C661.114 463.355 665.691 473.911 668.047 484.8C670.403 495.644 679.18 490.266 687.358 497.822C695.558 505.377 696.18 498.177 703.803 502.911C711.403 507.6 714.358 514.466 721.669 515.755C728.98 517.066 716.114 507.555 713.158 502.733ZM644.536 470.911C650.358 479.844 648.069 471.866 655.736 470.555C663.358 469.244 649.269 458.089 644.58 452.8C639.891 447.511 635.247 446.111 631.136 453.889C626.469 462.755 638.736 461.977 644.536 470.911ZM697.936 528.222C694.98 520.711 686.425 512.377 682.936 508C679.403 503.711 673.891 501.066 669.203 501.8C664.491 502.489 661.58 499.755 659.247 493.777C656.891 487.866 652.803 488.6 649.269 488.355C645.78 488.089 631.691 491 623.469 493.466C615.291 495.977 611.536 499.066 606.18 503.622C597.691 510.733 602.403 505.955 606.18 513.044C609.914 520.111 602.025 536.733 601.447 547.333C600.847 557.933 616.469 548.022 622.314 548.2C628.18 548.466 626.447 544 631.114 541.222C635.825 538.444 638.869 538.355 643.98 545.044C649.158 551.822 655.914 558.622 655.914 564.666C655.914 570.666 674.447 585.711 681.491 583.6C688.514 581.422 692.625 574.533 699.069 569.489C705.536 564.489 703.203 551.177 704.936 543.533C706.736 535.889 700.825 535.666 697.936 528.222Z" fill="white"/>
</svg>
