<svg width="800" height="800" viewBox="0 0 800 800" fill="none" xmlns="http://www.w3.org/2000/svg">
<path d="M400.337 758.001C379.337 758.001 358.67 751.001 342.337 737.001L289.671 692.001C284.337 687.334 271.004 682.668 264.004 682.668H205.671C156.337 682.668 116.337 642.668 116.337 593.334V536.334C116.337 529.334 111.671 516.001 107.337 511.001L62.0039 457.668C34.6706 425.334 34.6706 374.668 62.0039 342.001L107.337 288.668C111.671 283.668 116.337 270.335 116.337 263.335V206.668C116.337 157.335 156.337 117.335 205.671 117.335H263.337C270.337 117.335 283.337 112.335 289.004 107.668L341.67 62.668C374.337 35.0013 425.337 35.0013 458.003 62.668L510.67 107.668C516.003 112.335 529.67 117.001 536.67 117.001H593.337C642.67 117.001 682.67 157.001 682.67 206.335V263.001C682.67 270.001 687.67 283.001 692.337 288.668L737.337 341.334C765.337 374.334 765.003 425.334 737.337 457.668L692.337 510.334C687.67 516.001 683.003 529.001 683.003 536.001V592.668C683.003 642.001 643.003 682.001 593.67 682.001H537.003C530.003 682.001 517.003 687.001 511.003 691.668L458.337 736.668C442.003 751.001 421.003 758.001 400.337 758.001ZM205.671 167.335C184.004 167.335 166.337 185.001 166.337 206.668V263.335C166.337 282.335 157.671 306.335 145.337 321.001L100.004 374.334C88.6706 388.001 88.6706 412.001 100.004 425.334L145.004 478.334C157.004 492.001 166.004 517.001 166.004 536.001V593.001C166.004 614.668 183.671 632.334 205.337 632.334H263.337C282.004 632.334 306.671 641.334 321.337 653.668L374.337 699.001C388.003 710.668 412.003 710.668 425.67 699.001L478.337 654.001C493.337 641.334 517.67 632.668 536.337 632.668H593.003C614.67 632.668 632.337 615.001 632.337 593.334V536.668C632.337 518.001 641.337 493.668 653.67 478.668L699.003 425.668C710.67 412.001 710.67 388.001 699.003 374.334L654.003 321.668C641.337 306.668 632.67 282.335 632.67 263.668V206.668C632.67 185.001 615.003 167.335 593.337 167.335H536.67C517.67 167.335 493.003 158.335 478.337 146.001L425.337 100.668C411.67 89.0013 388.003 89.0013 374.003 100.668L321.671 146.001C306.671 158.335 282.337 167.335 263.337 167.335H205.671Z" fill="white"/>
<path d="M400.001 562.333C381.668 562.333 366.668 547.333 366.668 528.999C366.668 510.666 381.335 495.666 400.001 495.666C418.335 495.666 433.335 510.666 433.335 528.999C433.335 547.333 418.668 562.333 400.001 562.333Z" fill="white"/>
<path d="M400 457.333C386.333 457.333 375 446 375 432.333V271C375 257.333 386.333 246 400 246C413.667 246 425 257.333 425 271V432C425 446 414 457.333 400 457.333Z" fill="white"/>
</svg>
