<svg width="800" height="800" viewBox="0 0 800 800" fill="none" xmlns="http://www.w3.org/2000/svg">
<path d="M250 525C250 518.37 252.634 512.011 257.322 507.322C262.011 502.634 268.37 500 275 500H375C381.63 500 387.989 502.634 392.678 507.322C397.366 512.011 400 518.37 400 525C400 531.63 397.366 537.989 392.678 542.678C387.989 547.366 381.63 550 375 550H275C268.37 550 262.011 547.366 257.322 542.678C252.634 537.989 250 531.63 250 525ZM250 425C250 418.37 252.634 412.011 257.322 407.322C262.011 402.634 268.37 400 275 400H525C531.63 400 537.989 402.634 542.678 407.322C547.366 412.011 550 418.37 550 425C550 431.63 547.366 437.989 542.678 442.678C537.989 447.366 531.63 450 525 450H275C268.37 450 262.011 447.366 257.322 442.678C252.634 437.989 250 431.63 250 425ZM250 325C250 318.37 252.634 312.011 257.322 307.322C262.011 302.634 268.37 300 275 300H525C531.63 300 537.989 302.634 542.678 307.322C547.366 312.011 550 318.37 550 325C550 331.63 547.366 337.989 542.678 342.678C537.989 347.366 531.63 350 525 350H275C268.37 350 262.011 347.366 257.322 342.678C252.634 337.989 250 331.63 250 325ZM250 225C250 218.37 252.634 212.011 257.322 207.322C262.011 202.634 268.37 200 275 200H525C531.63 200 537.989 202.634 542.678 207.322C547.366 212.011 550 218.37 550 225C550 231.63 547.366 237.989 542.678 242.678C537.989 247.366 531.63 250 525 250H275C268.37 250 262.011 247.366 257.322 242.678C252.634 237.989 250 231.63 250 225Z" fill="white"/>
<path d="M150 0H650C676.522 0 701.957 10.5357 720.711 29.2893C739.464 48.043 750 73.4784 750 100V700C750 726.522 739.464 751.957 720.711 770.711C701.957 789.464 676.522 800 650 800H150C123.478 800 98.043 789.464 79.2893 770.711C60.5357 751.957 50 726.522 50 700V650H100V700C100 713.261 105.268 725.979 114.645 735.355C124.021 744.732 136.739 750 150 750H650C663.261 750 675.979 744.732 685.355 735.355C694.732 725.979 700 713.261 700 700V100C700 86.7392 694.732 74.0215 685.355 64.6447C675.979 55.2678 663.261 50 650 50H150C136.739 50 124.021 55.2678 114.645 64.6447C105.268 74.0215 100 86.7392 100 100V150H50V100C50 73.4784 60.5357 48.043 79.2893 29.2893C98.043 10.5357 123.478 0 150 0Z" fill="white"/>
<path d="M50 250V225C50 218.37 52.6339 212.011 57.3223 207.322C62.0107 202.634 68.3696 200 75 200C81.6304 200 87.9893 202.634 92.6777 207.322C97.3661 212.011 100 218.37 100 225V250H125C131.63 250 137.989 252.634 142.678 257.322C147.366 262.011 150 268.37 150 275C150 281.63 147.366 287.989 142.678 292.678C137.989 297.366 131.63 300 125 300H25C18.3696 300 12.0107 297.366 7.32233 292.678C2.63392 287.989 0 281.63 0 275C0 268.37 2.63392 262.011 7.32233 257.322C12.0107 252.634 18.3696 250 25 250H50ZM50 400V375C50 368.37 52.6339 362.011 57.3223 357.322C62.0107 352.634 68.3696 350 75 350C81.6304 350 87.9893 352.634 92.6777 357.322C97.3661 362.011 100 368.37 100 375V400H125C131.63 400 137.989 402.634 142.678 407.322C147.366 412.011 150 418.37 150 425C150 431.63 147.366 437.989 142.678 442.678C137.989 447.366 131.63 450 125 450H25C18.3696 450 12.0107 447.366 7.32233 442.678C2.63392 437.989 0 431.63 0 425C0 418.37 2.63392 412.011 7.32233 407.322C12.0107 402.634 18.3696 400 25 400H50ZM50 550V525C50 518.37 52.6339 512.011 57.3223 507.322C62.0107 502.634 68.3696 500 75 500C81.6304 500 87.9893 502.634 92.6777 507.322C97.3661 512.011 100 518.37 100 525V550H125C131.63 550 137.989 552.634 142.678 557.322C147.366 562.011 150 568.37 150 575C150 581.63 147.366 587.989 142.678 592.678C137.989 597.366 131.63 600 125 600H25C18.3696 600 12.0107 597.366 7.32233 592.678C2.63392 587.989 0 581.63 0 575C0 568.37 2.63392 562.011 7.32233 557.322C12.0107 552.634 18.3696 550 25 550H50Z" fill="white"/>
</svg>
