<svg width="800" height="800" viewBox="0 0 800 800" fill="none" xmlns="http://www.w3.org/2000/svg">
<path d="M522.636 56.0856C632.29 59.2418 719.472 151.94 719.472 263.111V277.568C719.472 433.452 668.939 581.726 577.004 703.593L570.196 712.586C563.392 720.716 556.205 727.43 548.302 733.199C518.368 755.068 475.892 736.389 471.301 699.295L450.881 502.006C447.81 477.207 426.734 458.583 401.736 458.583H397.728C372.733 458.583 351.66 477.204 348.619 501.686L328.174 699.161C323.604 736.012 280.905 754.779 251.065 732.632C243.438 726.971 236.501 720.436 230.395 713.16L222.442 703.571C130.53 581.723 80 433.448 80 277.568V263.111C80 151.939 167.176 59.2426 276.828 56.0856C321.489 54.802 364.25 67.995 399.736 93.0856C435.22 67.9973 477.982 54.802 522.636 56.0856ZM391.459 99.2582L401.345 111.839V95.8387H398.129V111.839L408.015 99.2582C405.308 97.1309 402.548 95.0724 399.737 93.0848C396.926 95.0723 394.166 97.1313 391.459 99.2582ZM551.475 684.299C639.24 567.959 687.472 426.436 687.472 277.567V263.111C687.472 169.028 613.827 90.7231 521.716 88.0723C481.083 86.9043 442.408 99.92 411.23 124.42C408.411 126.635 404.929 127.839 401.344 127.839H398.128C394.543 127.84 391.061 126.635 388.242 124.42C357.063 99.9176 318.388 86.9051 277.748 88.0731C185.639 90.7246 112 169.027 112 263.111V277.568C112 426.434 160.23 567.957 247.516 683.704L254.948 692.637C259.435 697.979 264.532 702.778 270.135 706.936C280.154 714.371 294.843 707.915 296.38 695.544L316.825 498.069C321.891 457.239 356.582 426.583 397.727 426.583H401.735C442.884 426.583 477.581 457.242 482.674 498.392L503.094 695.681C504.662 708.337 519.285 714.768 529.43 707.356C535.152 703.179 540.357 698.337 544.937 692.932L551.474 684.3L551.475 684.299Z" fill="#E7E7E7"/>
</svg>
