<svg width="611" height="565" viewBox="0 0 611 565" fill="none" xmlns="http://www.w3.org/2000/svg">
<path d="M610.528 14.288C610.528 6.40001 604.144 0.008 596.248 0H14.288C6.392 0 0 6.392 0 14.28V14.288V65.368C0 73.256 6.392 79.648 14.288 79.648H596.256C604.152 79.648 610.536 73.256 610.536 65.368L610.528 14.288Z" fill="white"/>
<path d="M561.473 119.488H49.0574C41.1694 119.496 34.7773 125.888 34.7773 133.776C34.7773 133.8 34.7854 133.824 34.7854 133.824L34.7773 133.848V431.08C34.7773 448.688 49.6333 462.936 67.9933 462.936H285.353V505.92C277.625 511.904 272.561 521.168 272.561 531.696C272.561 549.768 287.209 564.416 305.273 564.416C323.337 564.416 337.985 549.768 337.985 531.696C337.985 521.16 332.913 511.888 325.177 505.912V462.936H542.537C560.889 462.936 575.753 448.688 575.753 431.08V133.512H575.729C575.577 125.752 569.265 119.496 561.473 119.488Z" fill="white"/>
</svg>
