<svg width="800" height="800" viewBox="0 0 800 800" fill="none" xmlns="http://www.w3.org/2000/svg">
<g clip-path="url(#clip0_293_3312)">
<path d="M149.037 0L1.94531 147.092L31.3453 176.492L108.153 99.6875L141.736 133.27L64.9297 210.077L94.3297 239.477L171.136 162.672L204.719 196.255L127.912 273.059L157.314 302.461L234.12 225.655L267.703 259.239L190.897 336.044L220.297 365.444L367.391 218.352L149.037 0Z" fill="white"/>
<path d="M581.647 432.611L434.555 579.705L463.955 609.105L540.759 532.298L574.342 565.881L497.537 642.687L526.939 672.089L603.744 595.283L637.327 628.866L560.522 705.672L589.922 735.072L666.727 658.266L700.311 691.848L623.505 768.656L652.906 798.056L799.998 650.964L581.647 432.611Z" fill="white"/>
<path d="M542.555 110.354L83.4203 569.487L65.6094 618.708L57.1953 641.956L158.045 742.806L181.294 734.392L230.514 716.581L689.647 257.447L542.555 110.354Z" fill="white"/>
<path d="M768.963 31.0376C728.41 -9.51709 662.426 -9.51709 621.871 31.0376L576.137 76.772L723.229 223.864L768.963 178.13C809.516 137.577 809.516 71.5907 768.963 31.0376Z" fill="white"/>
<path d="M39.3469 691.275L0 800L108.725 760.653L39.3469 691.275Z" fill="white"/>
</g>
<defs>
<clipPath id="clip0_293_3312">
<rect width="800" height="800" fill="white"/>
</clipPath>
</defs>
</svg>
