<svg width="800" height="800" viewBox="0 0 800 800" fill="none" xmlns="http://www.w3.org/2000/svg">
<path d="M127.252 182.769C163.511 182.769 192.887 153.367 192.887 117.131C192.887 80.858 163.511 51.4814 127.252 51.4814C90.9766 51.4814 61.6016 80.858 61.6016 117.131C61.6016 153.367 90.9766 182.769 127.252 182.769Z" fill="white"/>
<path d="M350.259 382.871C350.259 381.533 350.037 380.256 349.867 378.967L447.911 307.81C454.07 303.33 455.458 294.667 450.978 288.494C448.378 284.924 444.194 282.788 439.775 282.788C436.842 282.788 434.045 283.708 431.664 285.427L333.423 356.733C329.766 355.064 325.753 354.07 321.47 354.07H268.067L255.108 280.286C247.991 243.081 233.058 213.864 201.252 213.864H66.4078C34.6031 213.864 0 248.467 0 280.286V500.916C0 516.819 12.8844 529.716 28.7875 529.716C36.6172 529.716 28.7875 529.716 48.8875 529.716L59.8328 717.878C59.8328 734.8 73.5641 748.519 90.4859 748.519C103.173 748.519 134.858 748.519 151.78 748.519C168.702 748.519 182.42 734.8 182.42 717.878L196.802 345.175H197.525L205.759 381.533C208.484 398.872 223.405 411.658 240.953 411.658H321.475C337.375 411.658 350.259 398.774 350.259 382.871ZM106.291 341.97V237.091H143.988V341.97L123.961 365.592L106.291 341.97Z" fill="white"/>
<path d="M297.383 74.1719V313.858H335.08V111.867H762.302V472.08H335.08V426.739H297.383V509.775H799.998V74.1719H297.383Z" fill="white"/>
<path d="M487.202 607.183C487.202 577.806 463.397 554.013 434.033 554.013C404.656 554.013 380.852 577.806 380.852 607.183C380.852 636.535 404.656 660.352 434.033 660.352C463.395 660.352 487.202 636.533 487.202 607.183Z" fill="white"/>
<path d="M434.034 688.833C396.13 688.833 363.931 713.706 351.562 748.519H516.508C504.139 713.705 471.939 688.833 434.034 688.833Z" fill="white"/>
<path d="M716.522 607.183C716.522 577.806 692.717 554.013 663.353 554.013C633.977 554.013 610.172 577.806 610.172 607.183C610.172 636.535 633.977 660.352 663.353 660.352C692.717 660.352 716.522 636.533 716.522 607.183Z" fill="white"/>
<path d="M663.352 688.833C625.448 688.833 593.249 713.706 580.879 748.519H745.824C733.455 713.705 701.257 688.833 663.352 688.833Z" fill="white"/>
</svg>
